HIERARCHY
ROOT joint_Root
{
  OFFSET 0 0 0
  CHANNELS 6 Xposition Yposition Zposition Zrotation Xrotation Yrotation
  JOINT Hips
  {
    OFFSET 0.0408292 93.9915 0.0639531
    CHANNELS 6 Xposition Yposition Zposition Zrotation Xrotation Yrotation
    JOINT Spine
    {
      OFFSET 15.7357 0 0
      CHANNELS 6 Xposition Yposition Zposition Zrotation Xrotation Yrotation
      JOINT Chest
      {
        OFFSET 8.98455 -0.406207 0
        CHANNELS 6 Xposition Yposition Zposition Zrotation Xrotation Yrotation
        JOINT Neck
        {
          OFFSET 16.3773 0 0
          CHANNELS 6 Xposition Yposition Zposition Zrotation Xrotation Yrotation
          JOINT Head
          {
            OFFSET 6.45672 0 0
            CHANNELS 6 Xposition Yposition Zposition Zrotation Xrotation Yrotation
            End Site
            {
              OFFSET 10 0 0
            }
          }
        }
        JOINT Shoulder_L
        {
          OFFSET 12.9942 -0.242716 4.98039
          CHANNELS 6 Xposition Yposition Zposition Zrotation Xrotation Yrotation
          JOINT UpperArm_L
          {
            OFFSET 5.34809 0 0
            CHANNELS 6 Xposition Yposition Zposition Zrotation Xrotation Yrotation
            JOINT LowerArm_L
            {
              OFFSET 24.3286 1.87007e-05 0
              CHANNELS 6 Xposition Yposition Zposition Zrotation Xrotation Yrotation
              JOINT Hand_L
              {
                OFFSET 22.2916 0 0
                CHANNELS 6 Xposition Yposition Zposition Zrotation Xrotation Yrotation
                End Site
                {
                  OFFSET 5 0 0
                }
              }
            }
          }
        }
        JOINT Shoulder_R
        {
          OFFSET 12.9945 -0.242716 -4.98039
          CHANNELS 6 Xposition Yposition Zposition Zrotation Xrotation Yrotation
          JOINT UpperArm_R
          {
            OFFSET -5.34813 0 0
            CHANNELS 6 Xposition Yposition Zposition Zrotation Xrotation Yrotation
            JOINT LowerArm_R
            {
              OFFSET -24.3289 0.000322201 0
              CHANNELS 6 Xposition Yposition Zposition Zrotation Xrotation Yrotation
              JOINT Hand_R
              {
                OFFSET -22.2915 -0.000108084 0
                CHANNELS 6 Xposition Yposition Zposition Zrotation Xrotation Yrotation
                End Site
                {
                  OFFSET -5 0 0
                }
              }
            }
          }
        }
      }
    }
    JOINT UpperLeg_L
    {
      OFFSET -2.19248 -6.46944 0
      CHANNELS 6 Xposition Yposition Zposition Zrotation Xrotation Yrotation
      JOINT LowerLeg_L
      {
        OFFSET 39.0811 0 -1.23785e-05
        CHANNELS 6 Xposition Yposition Zposition Zrotation Xrotation Yrotation
        JOINT Foot_L
        {
          OFFSET 40.9854 0 -1.26872e-05
          CHANNELS 6 Xposition Yposition Zposition Zrotation Xrotation Yrotation
          JOINT Toes_L
          {
            OFFSET 11.7543 0 0
            CHANNELS 6 Xposition Yposition Zposition Zrotation Xrotation Yrotation
            End Site
            {
              OFFSET 5 0 0
            }
          }
        }
      }
    }
    JOINT UpperLeg_R
    {
      OFFSET -2.19251 6.46944 0
      CHANNELS 6 Xposition Yposition Zposition Zrotation Xrotation Yrotation
      JOINT LowerLeg_R
      {
        OFFSET -39.0811 0 0
        CHANNELS 6 Xposition Yposition Zposition Zrotation Xrotation Yrotation
        JOINT Foot_R
        {
          OFFSET -40.9854 0 0
          CHANNELS 6 Xposition Yposition Zposition Zrotation Xrotation Yrotation
          JOINT Toes_R
          {
            OFFSET -11.7543 0 0
            CHANNELS 6 Xposition Yposition Zposition Zrotation Xrotation Yrotation
            End Site
            {
              OFFSET -5 0 0
            }
          }
        }
      }
    }
  }
}
MOTION
Frames:	6
Frame Time:	0.0333333
0 0 0 0 0 -0 2.96952 92.9748 -6.65175 87.4964 -11.6833 -26.506 15.7357 5.1072e-06 -5.51765e-07 93.2234 73.598 -94.227 8.98455 -0.406207 -4.3199e-07 5.94696 1.15478 0.444774 16.3773 -1.3905e-06 -6.99897e-07 11.5718 1.92077 -1.29434 6.45672 -1.25837e-06 -1.02172e-07 4.62082 -0.679957 -0.620848 12.9942 -0.242716 4.98039 -89.5137 6.16288 -90.0255 5.34809 -7.22636e-06 -6.2814e-07 -30.8641 51.2418 -9.92416 24.3286 1.87007e-05 4.90208e-06 1.39268e-05 -8.91779e-06 -106.991 22.2916 -9.88446e-07 4.63217e-06 19.6897 18.5337 -14.2965 12.9945 -0.242716 -4.98039 90.3788 7.97882 -88.615 -5.34813 -1.25947e-06 -3.79883e-06 -9.66062 54.6227 -38.1436 -24.3289 0.000322201 -8.65921e-06 0.000692987 -0.00027471 -106.338 -22.2915 -0.000108084 -4.47941e-06 -11.4039 65.156 -4.04579 -2.19248 -6.46944 -1.22533e-07 178.167 -4.8339 -39.3863 39.0811 -6.73843e-06 -1.23785e-05 6.871e-06 1.64628e-06 13.474 40.9854 -6.48686e-06 -1.26872e-05 1.91526 -8.05451 -50.4372 11.7543 -2.30145e-07 3.05095e-06 0 0 -16.5775 -2.19251 6.46944 -1.45247e-06 176.755 -16.7661 144.04 -39.0811 4.44089e-16 -1.77636e-15 -3.05176e-05 -7.95139e-16 15.8008 -40.9854 7.72618e-06 5.99936e-06 -3.40609 -40.812 -58.9204 -11.7543 -5.6619e-06 -5.58687e-06 1.46441e-15 -6.36111e-15 -16.1959 
0 0 0 0 0 -0 2.90472 92.9732 -6.70396 87.5295 -11.6886 -26.5197 15.7357 5.1072e-06 -5.51765e-07 93.2925 73.6532 -94.2825 8.98455 -0.406207 -4.3199e-07 5.94258 1.16995 0.464925 16.3773 -1.3905e-06 -6.99897e-07 11.5238 1.90774 -1.28491 6.45672 -1.25837e-06 -1.02172e-07 4.60964 -0.736647 -0.626939 12.9942 -0.242716 4.98039 -89.5147 6.17181 -90.0155 5.34809 -7.22636e-06 -6.2814e-07 -30.8587 51.2682 -9.96719 24.3286 1.87007e-05 4.90208e-06 1.39351e-05 -8.89038e-06 -106.937 22.2916 -9.88446e-07 4.63217e-06 19.6599 18.4894 -14.3112 12.9945 -0.242716 -4.98039 90.3795 7.96673 -88.6181 -5.34813 -1.25947e-06 -3.79883e-06 -9.67449 54.6407 -38.1171 -24.3289 0.000322201 -8.65921e-06 0.000693079 -0.000274398 -106.319 -22.2915 -0.000108084 -4.47941e-06 -11.4052 65.1174 -4.04078 -2.19248 -6.46944 -1.22533e-07 178.188 -4.83221 -39.4514 39.0811 -6.73843e-06 -1.23785e-05 6.88677e-06 1.65431e-06 13.5074 40.9854 -6.48686e-06 -1.26872e-05 1.86592 -8.06941 -50.4091 11.7543 -2.30145e-07 3.05095e-06 -4.14811e-16 0 -16.5775 -2.19251 6.46944 -1.45247e-06 176.757 -16.7742 143.97 -39.0811 5.55112e-16 -1.77636e-15 -3.05176e-05 7.95139e-16 15.8365 -40.9854 7.72618e-06 5.99936e-06 -3.3433 -40.8182 -58.8886 -11.7543 -5.6619e-06 -5.58687e-06 -3.31238e-15 0 -16.2188 
0 0 0 0 0 -0 2.83705 92.9717 -6.75626 87.5543 -11.6833 -26.5338 15.7357 5.1072e-06 -5.51765e-07 93.3758 73.7188 -94.3512 8.98455 -0.406207 -4.3199e-07 5.9442 1.18849 0.489433 16.3773 -1.3905e-06 -6.99897e-07 11.4924 1.89287 -1.26231 6.45672 -1.25837e-06 -1.02172e-07 4.58963 -0.794364 -0.634215 12.9942 -0.242716 4.98039 -89.5154 6.16158 -90.0127 5.34809 -7.22636e-06 -6.2814e-07 -30.8534 51.3045 -10.0305 24.3286 1.87007e-05 4.90208e-06 1.39452e-05 -8.85731e-06 -106.872 22.2916 -9.88446e-07 4.63217e-06 19.6442 18.4307 -14.3281 12.9945 -0.242716 -4.98039 90.3792 7.95378 -88.6138 -5.34813 -1.25947e-06 -3.79883e-06 -9.72224 54.6582 -38.0634 -24.3289 0.000322201 -8.65921e-06 0.00069318 -0.000274051 -106.298 -22.2915 -0.000108084 -4.47941e-06 -11.4337 65.0865 -4.02795 -2.19248 -6.46944 -1.22534e-07 178.215 -4.83754 -39.5167 39.0811 -6.73843e-06 -1.23785e-05 6.90291e-06 1.66255e-06 13.5416 40.9854 -6.48686e-06 -1.26872e-05 1.81578 -8.07055 -50.3758 11.7543 -2.30145e-07 3.05095e-06 -2.66581e-16 -1.98785e-16 -16.5775 -2.19251 6.46944 -1.45247e-06 176.768 -16.7881 143.909 -39.0811 6.66134e-16 0 -3.05176e-05 -1.59028e-15 15.8595 -40.9854 7.72618e-06 5.99936e-06 -3.27519 -40.8365 -58.8502 -11.7543 -5.6619e-06 -5.58687e-06 -9.26696e-16 -3.18055e-15 -16.2442 
0 0 0 0 0 -0 2.77266 92.9687 -6.80584 87.5688 -11.6725 -26.547 15.7357 5.1072e-06 -5.51765e-07 93.4767 73.8072 -94.4258 8.98455 -0.406207 -4.3199e-07 5.94813 1.20755 0.510017 16.3773 -1.3905e-06 -6.99897e-07 11.4747 1.88339 -1.22931 6.45672 -1.25837e-06 -1.02172e-07 4.56685 -0.846763 -0.638198 12.9942 -0.242716 4.98039 -89.5163 6.13414 -90.013 5.34809 -7.22636e-06 -6.2814e-07 -30.869 51.3486 -10.0964 24.3286 1.87007e-05 4.90208e-06 1.39582e-05 -8.81423e-06 -106.788 22.2916 -9.88446e-07 4.63217e-06 19.6261 18.3551 -14.3517 12.9945 -0.242716 -4.98039 90.378 7.94717 -88.6037 -5.34813 -1.25947e-06 -3.79883e-06 -9.81098 54.6803 -37.9746 -24.3289 0.000322201 -8.65921e-06 0.000693328 -0.000273545 -106.267 -22.2915 -0.000108084 -4.47941e-06 -11.4989 65.0582 -4.00857 -2.19248 -6.46944 -1.22533e-07 178.244 -4.85338 -39.5777 39.0811 -6.73843e-06 -1.23785e-05 6.91836e-06 1.67046e-06 13.5745 40.9854 -6.48686e-06 -1.26872e-05 1.76937 -8.05779 -50.3391 11.7543 -2.30145e-07 3.05095e-06 -5.91752e-17 -1.98785e-16 -16.5775 -2.19251 6.46944 -1.45247e-06 176.787 -16.8073 143.854 -39.0811 2.22045e-16 1.77636e-15 -3.05176e-05 7.95139e-16 15.8778 -40.9854 7.72618e-06 5.99936e-06 -3.21029 -40.8618 -58.8126 -11.7543 -5.6619e-06 -5.58687e-06 -4.24126e-15 -3.18055e-15 -16.267 
0 0 0 0 0 -0 2.71544 92.9629 -6.84939 87.5828 -11.661 -26.5512 15.7357 5.1072e-06 -5.51765e-07 93.5787 73.9162 -94.4962 8.98455 -0.406207 -4.3199e-07 5.95116 1.22384 0.528031 16.3773 -1.3905e-06 -6.99897e-07 11.4579 1.87767 -1.19312 6.45672 -1.25837e-06 -1.02172e-07 4.54218 -0.895008 -0.641812 12.9942 -0.242716 4.98039 -89.5173 6.10098 -90.0148 5.34809 -7.22636e-06 -6.2814e-07 -30.9222 51.3905 -10.1363 24.3286 1.87007e-05 4.90208e-06 1.39731e-05 -8.7646e-06 -106.69 22.2916 -9.88446e-07 4.63217e-06 19.592 18.2746 -14.3793 12.9945 -0.242716 -4.98039 90.3762 7.95531 -88.5923 -5.34813 -1.25947e-06 -3.79883e-06 -9.93653 54.7064 -37.8487 -24.3289 0.000322201 -8.65921e-06 0.000693523 -0.000272876 -106.226 -22.2915 -0.000108084 -4.47941e-06 -11.5977 65.033 -3.99029 -2.19248 -6.46944 -1.22533e-07 178.266 -4.87224 -39.6246 39.0811 -6.73843e-06 -1.23785e-05 6.93216e-06 1.67755e-06 13.6038 40.9854 -6.48686e-06 -1.26872e-05 1.729 -8.03851 -50.3008 11.7543 -2.30145e-07 3.05095e-06 -5.91752e-17 -1.98785e-16 -16.5775 -2.19251 6.46944 -1.45247e-06 176.805 -16.823 143.81 -39.0811 -1.11022e-16 0 -3.05176e-05 7.95139e-16 15.8994 -40.9854 7.72618e-06 5.99936e-06 -3.15531 -40.8844 -58.7834 -11.7543 -5.6619e-06 -5.58687e-06 9.94048e-15 0 -16.2848 
0 0 0 0 0 -0 2.66385 92.956 -6.88721 87.6045 -11.6531 -26.5403 15.7357 5.1072e-06 -5.51765e-07 93.6671 74.0387 -94.5599 8.98455 -0.406207 -4.3199e-07 5.94963 1.23685 0.552153 16.3773 -1.3905e-06 -6.99897e-07 11.4261 1.87317 -1.16301 6.45672 -1.25837e-06 -1.02172e-07 4.51571 -0.940599 -0.651294 12.9942 -0.242716 4.98039 -89.5179 6.07526 -90.0171 5.34809 -7.22636e-06 -6.2814e-07 -31.0027 51.428 -10.1448 24.3286 1.87007e-05 4.90208e-06 1.39886e-05 -8.7129e-06 -106.589 22.2916 -9.88446e-07 4.63217e-06 19.5423 18.1964 -14.4045 12.9945 -0.242716 -4.98039 90.3748 7.97546 -88.586 -5.34813 -1.25947e-06 -3.79883e-06 -10.0853 54.7357 -37.6949 -24.3289 0.000322201 -8.65921e-06 0.000693754 -0.000272082 -106.177 -22.2915 -0.000108084 -4.47941e-06 -11.7091 65.0083 -3.98442 -2.19248 -6.46944 -1.22534e-07 178.277 -4.88844 -39.652 39.0811 -6.73843e-06 -1.23785e-05 6.9442e-06 1.68374e-06 13.6293 40.9854 -6.48686e-06 -1.26872e-05 1.69288 -8.02031 -50.2608 11.7543 -2.30145e-07 3.05095e-06 -3.25756e-16 -3.97569e-16 -16.5775 -2.19251 6.46944 -1.45247e-06 176.819 -16.8307 143.785 -39.0811 1.11022e-16 0 -3.05176e-05 -1.59028e-15 15.9221 -40.9854 7.72618e-06 5.99936e-06 -3.10712 -40.8986 -58.7603 -11.7543 -5.6619e-06 -5.58687e-06 -6.62742e-15 0 -16.2978 
